<svg xmlns="http://www.w3.org/2000/svg" data-v-423bf9ae="" viewBox="0 0 80.09816196061372 60" class="font"><!----><!----><!----><g data-v-423bf9ae="" id="caa1baea-2f4d-4155-9d78-c7f207612709" fill="#ffffff" transform="matrix(6.037320430084001,0,0,6.037320430084001,0.2982070870243021,-24.753013187580656)"><path d="M4.72 6.02L4.31 5.89Q3.95 5.68 2.90 5.68L2.90 5.68L2.98 6.55Q3.09 7.31 3.18 9.38L3.18 9.38Q3.30 9.35 3.35 9.31L3.35 9.31Q3.46 9.23 3.58 9.23L3.58 9.23Q3.77 9.18 3.93 8.97L3.93 8.97Q4.35 8.62 4.58 8.39L4.58 8.39L5.04 7.85Q5.08 7.84 5.18 7.54Q5.28 7.24 5.31 7.04L5.31 7.04Q5.31 6.64 5.22 6.58L5.22 6.58Q5.22 6.55 5.05 6.23L5.05 6.23Q5.00 6.19 4.72 6.02L4.72 6.02ZM1.41 4.28L1.41 4.28L2.20 4.17L3.21 4.10L3.74 4.17Q3.79 4.23 4.00 4.24L4.00 4.24Q4.41 4.23 5.10 4.70L5.10 4.70Q5.26 4.76 5.38 4.90L5.38 4.90L5.91 5.54Q5.94 5.57 5.99 5.69Q6.05 5.81 6.15 5.96L6.15 5.96Q6.12 5.96 6.19 6.08L6.19 6.08Q6.37 6.38 6.36 6.44L6.36 6.44Q6.43 6.50 6.50 6.80Q6.57 7.11 6.54 7.22L6.54 7.22Q6.55 7.24 6.51 7.55L6.51 7.55Q6.41 8.22 6.16 8.54L6.16 8.54L5.98 8.88L5.67 9.32L5.49 9.49Q4.98 10.05 4.26 10.36L4.26 10.36Q4.23 10.37 4.17 10.39L4.17 10.39L3.84 10.50L3.29 10.64Q3.29 11.05 3.39 12.52L3.39 12.52Q3.44 13.02 3.47 13.08L3.47 13.08Q3.47 13.54 3.42 13.70Q3.36 13.86 3.23 13.94Q3.11 14.01 2.80 14.03L2.80 14.03Q2.72 14.06 2.51 13.98Q2.30 13.90 2.17 13.75L2.17 13.75L2.09 13.30Q2.11 13.27 2.00 13.03L2.00 13.03Q1.90 12.92 1.85 12.64L1.85 12.64L1.75 11.31L1.74 10.86Q0.92 10.92 0.76 10.42L0.76 10.42Q0.62 10.15 0.70 10.07L0.70 10.07L0.77 9.88Q0.94 9.62 1.41 9.62L1.41 9.62L1.71 9.62Q1.68 9.59 1.68 9.42L1.68 9.42L1.62 8.83L1.62 8.58L1.61 8.40Q1.62 8.27 1.60 8.12L1.60 8.12L1.60 8.04L1.57 7.69L1.57 7.42L1.55 7.28Q1.55 6.29 1.44 6.02L1.44 6.02Q0.98 6.29 0.83 6.31Q0.67 6.33 0.31 6.10L0.31 6.10Q0.15 5.98 0.14 5.82L0.14 5.82Q-0.11 5.47-0.03 5.25L-0.03 5.25Q0 5.14 0.20 4.90L0.20 4.90Q0.21 4.84 0.53 4.65L0.53 4.65Q0.78 4.40 1.41 4.28ZM11.56 10.50L11.59 10.30Q11.56 10.23 11.59 10.07Q11.61 9.90 11.63 9.62L11.63 9.62Q11.63 9.18 11.65 9.09L11.65 9.09L11.63 8.81Q11.63 8.58 11.65 8.43L11.65 8.43L11.65 8.02Q11.68 7.90 11.66 7.60Q11.63 7.31 11.68 6.85Q11.72 6.40 11.75 6.30L11.75 6.30L11.75 6.02Q11.75 5.98 11.76 5.73L11.76 5.73L11.76 5.63Q11.77 5.42 11.75 5.38L11.75 5.38L11.87 4.86L11.93 4.56Q11.96 4.51 12.14 4.33L12.14 4.33Q12.18 4.28 12.46 4.28Q12.74 4.28 12.88 4.30Q13.02 4.31 13.06 4.38Q13.10 4.44 13.15 4.63L13.15 4.63Q13.23 4.82 13.19 5.10L13.19 5.10Q13.20 5.18 13.20 5.22L13.20 5.22L13.20 5.36Q13.24 5.64 13.19 5.94L13.19 5.94Q13.19 6.05 13.20 6.16L13.20 6.16L13.20 6.29Q13.20 6.57 13.16 6.78L13.16 6.78L13.16 7.13Q13.17 7.31 13.12 7.48L13.12 7.48Q13.12 7.53 13.10 7.81L13.10 7.81Q13.08 7.91 13.05 8.05L13.05 8.05Q13.09 8.16 13.05 8.34L13.05 8.34Q13.01 8.39 13.08 8.68L13.08 8.68Q13.02 8.86 13.09 9.34L13.09 9.34L13.09 9.62Q13.13 10.07 13.08 10.50L13.08 10.50L13.08 10.58Q13.08 10.86 13.05 10.99L13.05 10.99Q13.08 11.23 13.05 11.59L13.05 11.59L13.05 11.68L13.02 12.01Q12.87 13.01 12.12 13.15L12.12 13.15Q11.21 13.31 10.68 12.66L10.68 12.66L10.60 12.45Q10.44 12.42 10.19 11.80L10.19 11.80Q9.80 10.86 9.76 10.77L9.76 10.77Q9.56 10.22 9.56 10.18L9.56 10.18L9.53 9.91Q9.52 9.88 9.48 9.80Q9.44 9.72 9.41 9.63L9.41 9.63Q9.41 9.53 9.31 9.21L9.31 9.21Q9.31 9.18 9.24 8.86L9.24 8.86L9.07 7.62Q9.07 7.57 9.06 7.48L9.06 7.48L9.00 7.78Q8.90 8.72 8.86 8.92L8.86 8.92L8.79 10.33L8.79 10.89L8.75 11.58Q8.75 12.10 8.79 12.54L8.79 12.54Q8.78 12.95 8.64 13.08Q8.50 13.22 8.22 13.23L8.22 13.23Q8.02 13.17 7.69 13.02L7.69 13.02Q7.59 12.96 7.55 12.79Q7.52 12.61 7.39 12.49Q7.27 12.36 7.25 12.21L7.25 12.21L7.08 11.14Q7.08 10.92 7.11 10.67Q7.13 10.43 7.11 10.16Q7.08 9.90 7.17 9.55Q7.27 9.20 7.25 8.95Q7.24 8.71 7.28 8.32Q7.32 7.94 7.32 7.76Q7.32 7.59 7.36 7.49L7.36 7.49Q7.36 7.27 7.39 7.14L7.39 7.14Q7.38 7.10 7.48 6.72L7.48 6.72Q7.48 6.62 7.52 6.43Q7.56 6.23 7.60 5.89Q7.64 5.56 7.76 5.35Q7.87 5.14 8.11 4.87L8.11 4.87Q8.23 4.80 8.33 4.51L8.33 4.51Q8.43 4.37 8.69 4.24L8.69 4.24Q8.79 4.17 8.95 4.17Q9.11 4.17 9.25 4.27L9.25 4.27Q9.80 4.48 9.93 5.01L9.93 5.01L9.98 5.36Q9.98 5.45 10.11 5.74L10.11 5.74Q10.11 5.88 10.16 6.15L10.16 6.15Q10.16 6.34 10.26 6.55L10.26 6.55Q10.40 7.27 10.47 7.55L10.47 7.55Q10.54 7.64 10.58 7.81L10.58 7.81Q10.61 7.94 10.70 8.19L10.70 8.19Q10.72 8.43 10.82 8.74L10.82 8.74Q11.40 10.61 11.54 10.85L11.54 10.85Q11.56 10.79 11.56 10.50L11.56 10.50Z" fill="#ffffff"/></g><!----><!----></svg>